<svg width="500" height="414" viewBox="0 0 500 414" fill="none" xmlns="http://www.w3.org/2000/svg">
<path d="M443.824 408.097C421.478 415.981 398.452 414.801 376.01 411.289C320.372 402.581 268.254 382.658 218.563 356.433C151.158 320.86 88.8546 278.321 38.7087 219.822C22.2694 200.645 7.70558 180.041 2.0984 154.797C-2.665 133.932 0.750301 112.035 11.6415 93.6124C14.0933 90.1965 16.752 86.934 19.6027 83.8431C37.6519 65.5798 58.0639 49.8138 80.2952 36.9651C179.475 -20.474 307.383 -10.3358 396.041 62.9328C417.43 80.6096 435.212 101.064 451.184 123.975C489.754 179.299 503.77 240.528 499.153 306.794C497.643 326.629 493.904 346.23 488.007 365.228C487.572 366.664 485.548 371.859 484.927 373.023C476.11 389.456 461.439 401.975 443.824 408.097ZM217.535 74.4563C202.471 73.9147 185.489 76.5266 168.651 80.5754C138.977 87.7444 111.387 101.745 88.0799 121.461C62.6101 142.802 56.9916 156.586 69.113 190.241C77.2657 212.876 92.7513 230.701 109.164 247.507C160.099 299.66 220.436 338.034 286.754 367.112C312.622 378.454 339.42 387.382 368.166 388.013C389.882 388.49 402.247 381.73 409.273 363.698C428.603 314.088 432.139 263.872 414.319 212.832C385.193 129.41 307.925 74.2585 217.535 74.4563Z" fill="#E63909"/>
</svg>
